<mxfile host="app.diagrams.net" modified="2023-07-02T07:04:22.458Z" agent="Mozilla/5.0 (X11; Linux x86_64; rv:109.0) Gecko/20100101 Firefox/115.0" version="21.4.0" etag="tGRDvXTdh7i3ILC9jzF2" type="github">
  <diagram name="Page-1" id="ZLMyaobcX-53a4lmqFE0">
    <mxGraphModel>
      <root>
        <mxCell id="0" />
        <mxCell id="1" parent="0" />
      </root>
    </mxGraphModel>
  </diagram>
</mxfile>
